# Blender v2.80 (sub 18) OBJ File: 'Corridor.blend'
# www.blender.org
g Corridor
v -1.750000 0.000000 200.000000
v -1.750000 2.300000 200.000000
v -1.750000 0.000000 -200.000000
v -1.750000 2.300000 -200.000000
v 1.750000 0.000000 200.000000
v 1.750000 2.300000 200.000000
v 1.750000 0.000000 -200.000000
v 1.750000 2.300000 -200.000000
vt -49.500000 0.212500
vt 50.500000 0.212500
vt 50.500000 0.787497
vt -49.500000 0.787497
vt 50.500000 0.212500
vt -49.500000 0.212500
vt -49.500000 0.787497
vt 50.500000 0.787497
vt 0.062499 50.500000
vt 0.062499 -49.500000
vt 0.937498 -49.500000
vt 0.937498 50.500000
vt 0.937498 50.500000
vt 0.937498 -49.500000
vt 0.062499 -49.500000
vt 0.062499 50.500000
vn 1.0000 0.0000 0.0000
vn -1.0000 0.0000 0.0000
vn 0.0000 1.0000 0.0000
vn 0.0000 -1.0000 0.0000
s off
f 1/1/1 3/2/1 4/3/1 2/4/1
f 7/5/2 5/6/2 6/7/2 8/8/2
f 3/9/3 1/10/3 5/11/3 7/12/3
f 8/13/4 6/14/4 2/15/4 4/16/4
g Corridor
v -1.750000 0.000000 200.000000
v -1.750000 2.300000 200.000000
v -1.750000 0.000000 -200.000000
v -1.750000 2.300000 -200.000000
v 1.750000 0.000000 200.000000
v 1.750000 2.300000 200.000000
v 1.750000 0.000000 -200.000000
v 1.750000 2.300000 -200.000000
vt -49.500000 0.212500
vt 50.500000 0.212500
vt 50.500000 0.787497
vt -49.500000 0.787497
vt 50.500000 0.212500
vt -49.500000 0.212500
vt -49.500000 0.787497
vt 50.500000 0.787497
vt 0.062499 50.500000
vt 0.062499 -49.500000
vt 0.937498 -49.500000
vt 0.937498 50.500000
vt 0.937498 50.500000
vt 0.937498 -49.500000
vt 0.062499 -49.500000
vt 0.062499 50.500000
vn 1.0000 0.0000 0.0000
vn -1.0000 0.0000 0.0000
vn 0.0000 1.0000 0.0000
vn 0.0000 -1.0000 0.0000
s off
f 9/17/5 11/18/5 12/19/5 10/20/5
f 15/21/6 13/22/6 14/23/6 16/24/6
f 11/25/7 9/26/7 13/27/7 15/28/7
f 16/29/8 14/30/8 10/31/8 12/32/8
